<svg width="363" height="362" viewBox="0 0 363 362" fill="none" xmlns="http://www.w3.org/2000/svg"><path d="M78.645 307.939c16.915 13.704 25.656 6.806 29.525 2.029l.873-1.077c3.811-4.705 8.92-14.902-7.996-28.605l-1.544-1.251c-16.844-13.646-25.795-6.561-29.606-1.857l-.873 1.078c-3.87 4.776-8.732 14.816 8.076 28.432l1.545 1.251Zm-.247-23.338c2.502-3.089 7.65-5.699 16.629 1.574 9.05 7.332 7.406 12.959 4.933 16.012l-.35.431c-2.472 3.053-7.289 5.694-16.483-1.754-9.05-7.332-7.61-12.708-5.136-15.761l.407-.502ZM75.72 254.224l-5.794-9.187-22.206 14.005-7.914-12.549-6.88 4.34 21.599 34.246 6.88-4.34-7.89-12.51 22.205-14.005ZM54.866 205.554l-3.705-13.553-12.553 24.897-20.374-14.939 3.607 13.197 18.464 13.209-13.821 3.777 2.839 10.389 33.171-9.067-2.84-10.388-15.649 4.277 10.86-21.799Z" fill="#C31E54"/><path d="M41.627 169.265c.498-12.285-4.476-16.234-10.618-16.483l-.462-.019c-6.28-.255-11.324 3.194-11.827 15.571l-1.046 25.77 34.36 1.395.436-10.76-11.453-.465.61-15.009ZM25.915 183.66l.602-14.824c.141-3.464 1.496-4.935 3.851-4.84l.139.006c2.355.096 3.537 1.763 3.4 5.134l-.602 14.824-7.39-.3ZM34.458 136.838l-9.723-4.064-4.153 9.936 31.727 13.262 9.305-22.261c5.526-13.22 1.948-18.322-4.023-20.818l-.426-.178c-5.885-2.46-12.066-1.336-17.538 11.756l-5.17 12.367Zm14.84 6.203-7.718-3.226 5.044-12.069c2.05-4.904 4.162-5.524 6.337-4.615l.128.054c2.09.873 3.303 2.883 1.254 7.787l-5.045 12.069Zm-7.29-51.59-4.154 9.936 31.728 13.262 4.153-9.936-31.728-13.262ZM83.299 97.28l7.4-7.95-19.217-17.886 10.108-10.86-5.954-5.543L48.05 84.679l5.955 5.542 10.077-10.827 19.217 17.887ZM97.262 52.545l-4.814-9.374-9.58 4.92 15.71 30.59 21.462-11.023c12.746-6.546 13.299-12.753 10.343-18.51l-.211-.41c-2.914-5.674-8.364-8.799-20.986-2.316l-11.924 6.123Zm7.348 14.308-3.821-7.442 11.635-5.975c4.728-2.429 6.743-1.54 7.82.556l.063.123c1.035 2.015.667 4.334-4.061 6.762l-11.636 5.976Zm27.679-44.143-9.58 4.92 15.709 30.59 9.58-4.92-15.709-30.59Z" fill="#C31E54"/><path d="m156.189 54.213 9.165-11.795 11.683 9.41 13.455-1.539-18.763-15.579 14.487-18.544-13.133 1.502-8.498 11.114-10.789-8.908-14.327 1.64 18.556 14.997-15.015 19.21 13.179-1.508ZM251.978 71.301 273.963 91.3c8.24 7.495 13.547 6.263 17.186 2.263l.436-.48c4.074-4.478 1.685-9.338.345-11.369 1.573.744 5.527 2.029 8.544-1.288l.436-.478c2.737-3.009 3.27-7.648-4.013-14.272l-21.779-19.812-23.14 25.437Zm38.669-1.502c2.222 2.022 1.898 3.477.934 4.537l-.062.068c-.933 1.026-2.413 1.554-4.636-.468l-12.445-11.32 3.764-4.138L290.647 69.8Zm-7.994 10.162c2.633 2.394 1.995 4.126 1 5.22l-.125.137c-.933 1.026-2.783 2.03-5.416-.366L264.983 73.01l4.541-4.992 13.129 11.944Z" fill="#C31E54"/><path d="m308.704 116.595-6.334-11.392 14.37-.691-8.036 12.083Zm-8.777 13.13 5.638 10.139 21.115-32.788-6.783-12.2-38.5 1.522 5.323 9.574 6.999-.348 10.13 18.218-3.922 5.883Z" fill="#C31E54"/><path d="m308.909 163.937 2.76 13.777 14.241-23.971 19.295 16.31-2.688-13.415-17.508-14.452 14.049-2.815-2.116-10.559-33.717 6.755 2.115 10.56 15.908-3.187-12.339 20.997Z" fill="#C31E54"/><path d="m322.056 203.696 1.544-12.942 12.049 7.861-13.593 5.081Zm-14.807 5.495-1.374 11.519 36.325-14.192 1.654-13.86-32.087-21.33-1.297 10.877 5.874 3.819-2.47 20.699-6.625 2.468Z" fill="#C31E54"/><path d="m306.888 215.894-4.683 9.698 12.195 5.888-10.048 20.811-12.195-5.888-4.683 9.698 30.967 14.952 4.683-9.698-11.28-5.446 10.048-20.811 11.28 5.446 4.683-9.698-30.967-14.952ZM270.365 272.405c-13.972 13.808-9.647 23.05-6.593 26.14l.358.361 8.12-8.024c-.355-.754-3.303-5.315 4.62-13.145 7.134-7.05 12.842-5.153 15.701-2.26l.39.394c3.022 3.057 4.594 8.002-2.737 15.247-7.758 7.668-12.124 5.223-12.971 4.761l-8.12 8.025.358.361c2.826 2.86 11.722 7.456 25.891-6.547l1.348-1.332c14.464-14.296 8.801-23.84 4.415-28.278l-.942-.953c-4.289-4.34-14.322-10.086-28.49 3.917l-1.348 1.333Z" fill="#C31E54"/><path d="m226.249 301.491-9.736 4.602 14.694 31.09 9.737-4.602 11.115-30.457 9.737 20.602 9.736-4.602-14.694-31.09-9.736 4.602-11.155 30.373-9.698-20.518Z" fill="#C31E54"/><path d="m183.831 309.595-10.708 1.146 3.658 34.192 10.708-1.145 20.509-25.111 2.424 22.657 10.708-1.145-3.658-34.193-10.708 1.146-20.519 25.018-2.414-22.565Zm14.21 35.063c-7.629.816-9.284 6.199-9.039 8.497l.01.092 7.721-.826c-.064-.598.224-2.255 2.613-2.511 2.482-.265 3.068 1.299 3.132 1.896l7.905-.845-.01-.092c-.246-2.298-2.451-7.269-10.77-6.379l-1.562.168Z" fill="#C31E54"/></svg>